<?xml version="1.0" encoding="UTF-8"?>
<svg version="1.1" xmlns="http://www.w3.org/2000/svg" width="1739" height="1519">
<path d="M0 0 C0.91676514 0.53343018 0.91676514 0.53343018 1.85205078 1.07763672 C9.98987758 5.88895953 17.28447707 11.30808172 24 18 C24.66128906 18.63808594 25.32257812 19.27617187 26.00390625 19.93359375 C31.89287917 26.03671114 35.999738 33.24169216 40.2890625 40.5 C40.74321533 41.23669922 41.19736816 41.97339844 41.6652832 42.73242188 C43 45 43 45 44.10620117 47.40820312 C46.2359417 51.53110253 47.95528827 53.55319724 52.28808594 55.40625 C55.73238201 56.46863867 59.22716588 57.26427519 62.75198364 58.01000977 C65.91028175 58.67978872 69.04768867 59.4300927 72.18833923 60.1776123 C73.79494916 60.55991863 75.40243334 60.93856906 77.01075745 61.31359863 C89.21139375 64.17757803 101.09965495 68.09270574 113 72 C114.09038574 72.35529785 115.18077148 72.7105957 116.30419922 73.07666016 C161.19056428 87.80531438 204.80509406 108.14204128 245 133 C245.92393555 133.57105469 246.84787109 134.14210937 247.79980469 134.73046875 C260.16637026 142.41240801 272.22893511 150.4351237 284 159 C285.18601807 159.85924072 285.18601807 159.85924072 286.39599609 160.73583984 C295.82144646 167.57441891 305.07820097 174.5130763 314 182 C315.7490739 183.41780991 317.49910618 184.83443818 319.25 186.25 C336.91044548 200.72906026 353.40134819 216.31976411 369.5625 232.4375 C370.12748199 232.99980316 370.69246399 233.56210632 371.27456665 234.14144897 C377.40292673 240.24773853 383.39198341 246.40574262 389 253 C390.45445517 254.60768373 391.91220895 256.21239715 393.375 257.8125 C398.10571502 263.06175883 402.57083694 268.49558996 407 274 C407.91374442 275.12135302 408.82782139 276.24243511 409.7421875 277.36328125 C417.83514205 287.32802933 425.49322357 297.5881688 433 308 C433.58571777 308.81130371 434.17143555 309.62260742 434.77490234 310.45849609 C448.48461561 329.52942284 460.59075222 349.48175602 472 370 C472.55300781 370.9909668 473.10601563 371.98193359 473.67578125 373.00292969 C488.18315605 399.11129212 500.42178684 426.08706254 511 454 C511.23654297 454.62370483 511.47308594 455.24740967 511.71679688 455.89001465 C535.28255964 518.24647561 548.15659879 584.09799397 551.25 650.625 C551.29129028 651.50994141 551.33258057 652.39488281 551.37512207 653.30664062 C552.2362156 672.38427018 552.13812798 691.36289386 551.25 710.4375 C551.20709839 711.36209015 551.16419678 712.2866803 551.11999512 713.23928833 C549.13594732 754.73186257 542.92587551 795.6719485 533 836 C532.73638672 837.07765625 532.47277344 838.1553125 532.20117188 839.265625 C517.747321 897.51573078 494.43592911 954.07041359 463.51318359 1005.47753906 C462.1970723 1007.67148257 460.89953001 1009.87441408 459.61328125 1012.0859375 C440.2806604 1045.16483352 416.78724159 1076.41739765 391.02734375 1104.7578125 C389.26032801 1106.71208424 387.53086471 1108.69059737 385.8125 1110.6875 C377.43226188 1120.27864408 368.61168606 1129.47840391 359.625 1138.5 C358.98377197 1139.14582031 358.34254395 1139.79164062 357.68188477 1140.45703125 C353.88310203 1144.24356459 349.96531263 1147.83349223 345.90625 1151.33886719 C343.10195114 1153.78257229 340.40027982 1156.33083278 337.6875 1158.875 C331.98515128 1164.17374466 326.07285619 1169.12898036 320 1174 C318.80726658 1174.9827665 317.61594599 1175.96724931 316.42578125 1176.953125 C306.23528205 1185.36883809 295.73266583 1193.28987346 285 1201 C284.17951172 1201.58958496 283.35902344 1202.17916992 282.51367188 1202.78662109 C254.16741012 1223.07115282 224.14955295 1240.3848436 193 1256 C192.01435059 1256.49483887 191.02870117 1256.98967773 190.01318359 1257.49951172 C105.9086551 1299.43042331 12.52097627 1318.91628956 -81 1321 C-82.19278564 1321.02707031 -82.19278564 1321.02707031 -83.40966797 1321.0546875 C-87.94256835 1321.14217412 -92.46805864 1321.09881244 -97 1321 C-97.95970703 1320.98211426 -98.91941406 1320.96422852 -99.90820312 1320.94580078 C-181.17066467 1319.28018779 -261.59716076 1303.01682266 -361.41943359 1260.21240234 C-363.76793474 1259.10902896 -366.12480618 1258.02785621 -368.48828125 1256.95703125 C-415.52912316 1235.5195187 -460.05875097 1205.55022472 -499.30297852 1171.99365234 C-502.78126059 1169.01958511 -506.30955335 1166.11986838 -509.875 1163.25 C-513.55303626 1160.25860148 -516.96301277 1157.16973111 -520.24584961 1153.75317383 C-521.8692568 1152.13067042 -523.5392625 1150.66539726 -525.296875 1149.19140625 C-531.34933669 1143.92996623 -536.95063794 1138.19825522 -542.60913086 1132.52124023 C-544.5579687 1130.56704376 -546.51209272 1128.61824853 -548.46679688 1126.66992188 C-554.52453257 1120.6154238 -560.47343234 1114.55011939 -566 1108 C-567.45445517 1106.39231627 -568.91220895 1104.78760285 -570.375 1103.1875 C-574.21806298 1098.92389983 -577.89322734 1094.55447727 -581.5 1090.08984375 C-583.32003572 1087.84039335 -585.15218882 1085.60526208 -587 1083.37890625 C-594.53548176 1074.26401506 -601.58881502 1064.88433327 -608.41796875 1055.23046875 C-609.95563435 1053.06255009 -611.50707651 1050.90520119 -613.0625 1048.75 C-664.37129752 977.35371671 -699.33246458 893.92543418 -729.1875 680.8125 C-729.18689575 679.8148764 -729.1862915 678.81725281 -729.18566895 677.78939819 C-729.04922417 594.09633759 -712.65827308 510.55641906 -666 402 C-665.50032715 400.95682617 -665.0006543 399.91365234 -664.48583984 398.83886719 C-656.7368862 382.76177932 -648.21198266 367.28115029 -639 352 C-638.49694336 351.15937012 -637.99388672 350.31874023 -637.47558594 349.45263672 C-621.62047983 322.9723704 -603.82888766 297.66339381 -584 274 C-583.56977539 273.4848584 -583.13955078 272.9697168 -582.69628906 272.43896484 C-577.26275876 265.93916688 -571.74843991 259.53330274 -566.046875 253.265625 C-564.16477879 251.18238873 -562.32837688 249.06781067 -560.5 246.9375 C-557.22903772 243.17437904 -553.71491301 239.69662836 -550.1640625 236.19921875 C-548.29352183 234.29829024 -546.57849302 232.36105955 -544.875 230.3125 C-539.75048483 224.34964249 -533.80086577 219.18128042 -528.02148438 213.86865234 C-526.02774563 212.02564796 -524.050395 210.16672275 -522.078125 208.30078125 C-515.79217442 202.36015122 -509.47259608 196.58217769 -502.70703125 191.18359375 C-500.30282501 189.2442701 -497.95991659 187.24896699 -495.62646484 185.22558594 C-433.7798181 131.81696125 -357.04621881 92.20660402 -270.5 65.625 C-269.80036133 65.41621216 -269.10072266 65.20742432 -268.37988281 64.99230957 C-260.98087165 62.79588922 -253.63072091 60.84678286 -246.03515625 59.4609375 C-232.75844903 57.49822155 -232.75844903 57.49822155 -222.17578125 50.09375 C-219.68672357 46.36483377 -217.82231029 42.42263848 -216.05371094 38.31152344 C-214.39554561 34.67400968 -212.24368213 31.42369561 -210 28.125 C-209.38656738 27.20908081 -209.38656738 27.20908081 -208.76074219 26.2746582 C-189.79868413 -1.46128032 -160.52023741 -15.36939519 -128.359375 -21.71875 C-86.09268999 -28.66110406 -37.18772876 -21.76615463 0 0 Z M117 176 C121.08496672 184.8053727 125.25152775 193.56415351 129.6328125 202.2265625 C168.31837003 278.7205754 199.85783127 359.11513979 275 630 C275.17299622 630.8692511 275.34599243 631.7385022 275.52423096 632.63409424 C292.5303852 718.20061827 302.67496314 804.89132205 307 892 C307.04574724 892.90654862 307.09149448 893.81309725 307.13862801 894.74711704 C307.99516766 912.16536808 308.13627599 929.56222491 308.10139394 946.99720502 C308.09501486 950.74202608 308.09454538 954.48684854 308.09336853 958.23167419 C308.09029711 965.27862679 308.08214206 972.32556333 308.07201904 979.37250894 C308.06072542 987.4140459 308.05531455 995.45558375 308.05032361 1003.4971267 C308.03995441 1019.99809377 308.02243886 1036.49904482 308 1053 C310.93414497 1050.68097789 313.64112787 1048.47899061 316.0625 1045.625 C316.65675781 1044.92890625 317.25101563 1044.2328125 317.86328125 1043.515625 C318.56839844 1042.68546875 319.27351563 1041.8553125 320 1041 C320.90915346 1039.95225401 321.81938639 1038.90544412 322.73046875 1037.859375 C329.25871476 1030.34206589 335.55929711 1022.68333399 341.62451172 1014.78759766 C342.53090723 1013.60963743 343.44130375 1012.43474345 344.35595703 1011.26318359 C402.49851076 936.75180802 438.9326467 846.04283425 455 722 C455.08757568 720.82655029 455.17515137 719.65310059 455.26538086 718.4440918 C456.12853572 706.03040077 456.20035286 693.62704818 456.1875 681.1875 C456.18689575 680.10429474 456.1862915 679.02108948 456.18566895 677.90505981 C456.16039601 661.18531757 455.79366 644.63765876 454 628 C453.87109375 626.76717285 453.7421875 625.5343457 453.609375 624.26416016 C446.8184562 560.96870978 429.40403476 500.45913312 402 443 C401.56075195 442.07622559 401.12150391 441.15245117 400.66894531 440.20068359 C379.95049838 396.928464 352.46854922 355.55674979 319.984375 320.16796875 C318.07442617 318.08131206 316.22054653 315.95611046 314.375 313.8125 C311.62955321 310.65586878 308.73348645 307.71145991 305.75 304.78125 C303.91757513 302.91610326 302.20646865 300.98072254 300.5 299 C295.52713777 293.25185858 290.17886852 288.0943171 284.421875 283.140625 C281.904372 280.91547718 279.4535965 278.63047495 277.00463867 276.33056641 C270.54336454 270.26601433 263.92309975 264.53665553 257 259 C255.74985832 257.97180499 254.50126357 256.94172734 253.25390625 255.91015625 C232.07193106 238.43083673 208.90505618 222.54684792 185 209 C184.33339355 208.62004883 183.66678711 208.24009766 182.97998047 207.84863281 C177.68486436 204.84045596 172.35080335 201.90773776 167 199 C165.80576416 198.34644531 165.80576416 198.34644531 164.58740234 197.6796875 C153.70540406 191.74759997 142.63376724 186.34789283 131.3125 181.3125 C130.12342041 180.78285645 128.93434082 180.25321289 127.70922852 179.70751953 C122.53887004 177.10110616 122.53887004 177.10110616 117 176 Z M-296 176 C-335.12807587 193.2662209 -372.36925734 212.67959606 -407 238 C-407.66692871 238.48678223 -408.33385742 238.97356445 -409.02099609 239.47509766 C-419.27887544 246.99324878 -429.22177228 254.86947775 -439 263 C-439.58990723 263.48936035 -440.17981445 263.9787207 -440.78759766 264.48291016 C-454.18917452 275.64774231 -466.76723004 287.69925963 -479.125 300 C-479.81118408 300.68151123 -480.49736816 301.36302246 -481.2043457 302.06518555 C-485.11038284 305.98367602 -488.83132937 310.01190262 -492.44580078 314.20068359 C-494.38184922 316.44207175 -496.37668541 318.62660415 -498.375 320.8125 C-503.10580648 326.06186031 -507.56910697 331.49688766 -512 337 C-512.93702553 338.14491973 -513.87454838 339.28943258 -514.8125 340.43359375 C-522.33018445 349.65213419 -529.28945532 359.18074311 -536 369 C-536.55977539 369.81774902 -537.11955078 370.63549805 -537.69628906 371.47802734 C-586.51817221 443.07527809 -617.648249 523.85824109 -629.3125 609.6875 C-629.45977539 610.76974854 -629.60705078 611.85199707 -629.75878906 612.96704102 C-630.22367813 616.64015457 -630.62879308 620.31649303 -631 624 C-631.12920334 625.26920792 -631.12920334 625.26920792 -631.26101685 626.5640564 C-632.94748711 643.67590936 -633.36550043 660.70211664 -633.31805801 677.89028168 C-633.31240622 679.9720416 -633.30959288 682.05379334 -633.30697632 684.13555908 C-633.26905997 704.90061937 -632.74329482 725.39288776 -630 746 C-629.83136383 747.33064475 -629.66341045 748.66137619 -629.49609375 749.9921875 C-625.47569657 781.55369692 -618.42482167 812.62070283 -609 843 C-608.65888184 844.10569336 -608.31776367 845.21138672 -607.96630859 846.35058594 C-589.8711454 904.35287431 -561.1996718 959.9244465 -524 1008 C-523.21496094 1009.03898437 -522.42992187 1010.07796875 -521.62109375 1011.1484375 C-516.13128862 1018.40108367 -510.39107774 1025.39702142 -504.46044922 1032.29248047 C-502.91142376 1034.10356106 -501.37861769 1035.92753724 -499.84765625 1037.75390625 C-498.79437229 1039.00268975 -497.74098924 1040.25138967 -496.6875 1041.5 C-496.20812988 1042.07548584 -495.72875977 1042.65097168 -495.23486328 1043.24389648 C-494.76935059 1043.79247314 -494.30383789 1044.3410498 -493.82421875 1044.90625 C-493.42291748 1045.38384766 -493.02161621 1045.86144531 -492.6081543 1046.35351562 C-490.23899304 1048.77914543 -487.62546519 1050.85513228 -485 1053 C-485.03029297 1052.09950928 -485.06058594 1051.19901855 -485.09179688 1050.27124023 C-488.29889528 950.16659745 -484.73061522 850.05232267 -301.73828125 191.5625 C-301.25858887 190.61818115 -300.77889648 189.6738623 -300.28466797 188.70092773 C-299.41537651 186.99842089 -298.53862404 185.29969332 -297.65283203 183.60571289 C-296.70980423 181.76609271 -295.8449984 179.88665884 -295 178 C-295.33 177.34 -295.66 176.68 -296 176 Z M-89 212 C-132.95709339 290.586948 -170.31621907 371.81317168 -221 518 C-221.34740234 519.09699219 -221.69480469 520.19398438 -222.05273438 521.32421875 C-222.32923828 522.21753906 -222.60574219 523.11085938 -222.890625 524.03125 C-223.11266602 524.74861328 -223.33470703 525.46597656 -223.56347656 526.20507812 C-224.11815555 528.17796532 -224.11815555 528.17796532 -224 531 C-223.05495605 531.45213867 -222.10991211 531.90427734 -221.13623047 532.37011719 C-202.83742547 541.13688506 -184.64530084 549.96386037 -167 560 C-165.98180176 560.57427734 -164.96360352 561.14855469 -163.91455078 561.74023438 C-119.29653825 586.93786366 -77.67901808 616.3523887 -38.68701172 649.56738281 C-37.01649597 650.98599155 -35.33898958 652.39593802 -33.66015625 653.8046875 C-17.94019676 667.0485262 -3.41505543 681.4903726 11.125 696 C11.85554596 696.72786713 12.58609192 697.45573425 13.33877563 698.20565796 C15.46063304 700.32161825 17.57860764 702.44138655 19.6953125 704.5625 C20.64299248 705.50721916 20.64299248 705.50721916 21.6098175 706.47102356 C25.38741414 710.26795981 28.97909155 714.18084699 32.47607422 718.23796082 C34.55725665 720.644328 36.71628166 722.97570557 38.875 725.3125 C42.96880209 729.80148057 46.85469667 734.41243476 50.66796875 739.140625 C52.70474129 741.63797425 54.783147 744.09212662 56.88476562 746.53491211 C63.35980425 754.07638682 69.40271379 761.91516908 75.38134766 769.85351562 C76.94969999 771.93329749 78.52656531 774.00634698 80.10546875 776.078125 C85.80506907 783.58545145 91.29698195 791.19146454 96.52392578 799.03735352 C98.73335221 802.5732856 98.73335221 802.5732856 102 805 C101.41603788 792.08224448 99.72208709 779.36126816 97.9375 766.5625 C97.78349731 765.45186188 97.62949463 764.34122375 97.4708252 763.19692993 C82.65660699 656.75546601 57.23997587 552.41001295 -52.04034424 279.94146729 C-53.36581641 277.2599215 -54.68082244 274.57327962 -55.99609375 271.88671875 C-61.47613103 260.74288499 -67.37544386 249.84905278 -73.36767578 238.97363281 C-76.3520669 233.53691671 -79.29929854 228.08005109 -82.25 222.625 C-83.11008667 221.03606934 -83.11008667 221.03606934 -83.98754883 219.41503906 C-85.32535646 216.94353443 -86.66284127 214.47185575 -88 212 C-88.33 212 -88.66 212 -89 212 Z M-279 800 C-280.73996794 811.1758152 -281.9164245 822.36454473 -282.9375 833.625 C-283.02270905 834.55831146 -283.10791809 835.49162292 -283.19570923 836.45321655 C-284.65105097 852.55603244 -285.7561306 868.6714543 -286.6875 884.8125 C-286.74807587 885.84715393 -286.80865173 886.88180786 -286.87106323 887.94781494 C-288.53381255 916.68705197 -289.21101142 945.40660544 -289.1875 974.1875 C-289.18723312 974.92753517 -289.18696625 975.66757034 -289.18669128 976.43003082 C-289.1541547 1048.82903246 -284.76070845 1121.36234041 -274 1193 C-230.66933168 1208.16812259 -186.69969048 1218.3177047 -141 1223 C-139.90719727 1223.11714355 -138.81439453 1223.23428711 -137.68847656 1223.35498047 C-101.12046809 1227.13303845 -63.49084894 1226.20487586 -27 1222 C-26.27889038 1221.9175 -25.55778076 1221.835 -24.81481934 1221.75 C17.71131008 1216.82135738 58.73798195 1206.4935168 99 1192 C96.15598676 1184.57265965 92.90745339 1177.40392761 89.4375 1170.25 C88.6475061 1168.61635498 88.6475061 1168.61635498 87.84155273 1166.94970703 C86.23264155 1163.63071043 84.61698488 1160.31506931 83 1157 C82.53110352 1156.03352539 82.06220703 1155.06705078 81.57910156 1154.07128906 C56.14396268 1101.75019832 23.15887504 1052.69712941 -14 1008 C-14.73259033 1007.11876465 -14.73259033 1007.11876465 -15.47998047 1006.21972656 C-20.84879678 999.78147523 -26.32664573 993.455001 -31.96484375 987.25 C-33.77377543 985.25010625 -35.54891801 983.22730568 -37.3125 981.1875 C-46.83666353 970.29186841 -56.89233576 959.94630439 -67.13769531 949.73193359 C-69.26484784 947.61018991 -71.38653561 945.48308509 -73.5078125 943.35546875 C-74.88509583 941.9788456 -76.26268899 940.60253234 -77.640625 939.2265625 C-78.572164 938.29198715 -78.572164 938.29198715 -79.52252197 937.33853149 C-83.30147197 933.57939076 -87.19793526 930.00716914 -91.23521423 926.52667236 C-93.64230381 924.44435892 -95.97475918 922.28459261 -98.3125 920.125 C-102.77739026 916.05262756 -107.36608155 912.19371402 -112.0703125 908.40234375 C-114.7384988 906.21443098 -117.34504125 903.97428603 -119.94433594 901.70605469 C-127.39981463 895.21122591 -135.17362759 889.26440513 -143.12744141 883.39648438 C-145.87076843 881.35061338 -148.55629226 879.23581835 -151.25 877.125 C-182.85531725 852.63447121 -217.63913479 831.57835759 -253 813 C-254.06347656 812.43812988 -255.12695312 811.87625977 -256.22265625 811.29736328 C-259.41687754 809.61030809 -262.61374233 807.92843654 -265.8125 806.25 C-266.7919458 805.73590576 -267.7713916 805.22181152 -268.78051758 804.69213867 C-269.68439209 804.22138916 -270.5882666 803.75063965 -271.51953125 803.265625 C-272.31464111 802.85086914 -273.10975098 802.43611328 -273.92895508 802.00878906 C-276.10958385 800.89061733 -276.10958385 800.89061733 -279 800 Z " fill="#A5A7AA" transform="translate(958,111)"/>
<path d="M0 0 C0.61117676 0.35562012 1.22235352 0.71124023 1.85205078 1.07763672 C9.98987758 5.88895953 17.28447707 11.30808172 24 18 C24.66128906 18.63808594 25.32257813 19.27617187 26.00390625 19.93359375 C31.89287917 26.03671114 35.999738 33.24169216 40.2890625 40.5 C40.74321533 41.23669922 41.19736816 41.97339844 41.6652832 42.73242188 C43 45 43 45 44.10620117 47.40820312 C46.2359417 51.53110253 47.95528827 53.55319724 52.28808594 55.40625 C55.73238201 56.46863867 59.22716588 57.26427519 62.75198364 58.01000977 C65.91028175 58.67978872 69.04768867 59.4300927 72.18833923 60.1776123 C73.79494916 60.55991863 75.40243334 60.93856906 77.01075745 61.31359863 C89.21139375 64.17757803 101.09965495 68.09270574 113 72 C114.09038574 72.35529785 115.18077148 72.7105957 116.30419922 73.07666016 C161.19056428 87.80531438 204.80509406 108.14204128 245 133 C245.92393555 133.57105469 246.84787109 134.14210937 247.79980469 134.73046875 C260.16637026 142.41240801 272.22893511 150.4351237 284 159 C284.79067871 159.57282715 285.58135742 160.1456543 286.39599609 160.73583984 C295.82144646 167.57441891 305.07820097 174.5130763 314 182 C315.7490739 183.41780991 317.49910618 184.83443818 319.25 186.25 C336.91044548 200.72906026 353.40134819 216.31976411 369.5625 232.4375 C370.12748199 232.99980316 370.69246399 233.56210632 371.27456665 234.14144897 C377.40292673 240.24773853 383.39198341 246.40574262 389 253 C390.45445517 254.60768373 391.91220895 256.21239715 393.375 257.8125 C398.10571502 263.06175883 402.57083694 268.49558996 407 274 C407.91374442 275.12135302 408.82782139 276.24243511 409.7421875 277.36328125 C417.83514205 287.32802933 425.49322357 297.5881688 433 308 C433.87857666 309.21695557 433.87857666 309.21695557 434.77490234 310.45849609 C448.48461561 329.52942284 460.59075222 349.48175602 472 370 C472.55300781 370.9909668 473.10601563 371.98193359 473.67578125 373.00292969 C488.18315605 399.11129212 500.42178684 426.08706254 511 454 C511.23654297 454.62370483 511.47308594 455.24740967 511.71679688 455.89001465 C535.28255964 518.24647561 548.15659879 584.09799397 551.25 650.625 C551.29129028 651.50994141 551.33258057 652.39488281 551.37512207 653.30664062 C552.2362156 672.38427018 552.13812798 691.36289386 551.25 710.4375 C551.20709839 711.36209015 551.16419678 712.2866803 551.11999512 713.23928833 C549.13594732 754.73186257 542.92587551 795.6719485 533 836 C532.73638672 837.07765625 532.47277344 838.1553125 532.20117188 839.265625 C517.747321 897.51573078 494.43592911 954.07041359 463.51318359 1005.47753906 C462.1970723 1007.67148257 460.89953001 1009.87441408 459.61328125 1012.0859375 C440.2806604 1045.16483352 416.78724159 1076.41739765 391.02734375 1104.7578125 C389.26032801 1106.71208424 387.53086471 1108.69059737 385.8125 1110.6875 C377.43226188 1120.27864408 368.61168606 1129.47840391 359.625 1138.5 C358.98377197 1139.14582031 358.34254395 1139.79164062 357.68188477 1140.45703125 C353.88310203 1144.24356459 349.96531263 1147.83349223 345.90625 1151.33886719 C343.10195114 1153.78257229 340.40027982 1156.33083278 337.6875 1158.875 C331.98515128 1164.17374466 326.07285619 1169.12898036 320 1174 C318.80726658 1174.9827665 317.61594599 1175.96724931 316.42578125 1176.953125 C306.23528205 1185.36883809 295.73266583 1193.28987346 285 1201 C284.17951172 1201.58958496 283.35902344 1202.17916992 282.51367188 1202.78662109 C257.89535959 1220.40343917 232.0134028 1235.86341933 205.1875 1249.875 C204.0428125 1250.47618652 202.898125 1251.07737305 201.71875 1251.69677734 C200.65011719 1252.2480127 199.58148437 1252.79924805 198.48046875 1253.3671875 C197.54098389 1253.85300293 196.60149902 1254.33881836 195.63354492 1254.83935547 C193.06814493 1255.96996746 190.76170235 1256.57060326 188 1257 C188.60343655 1246.56482843 190.19662651 1236.28866274 191.72421265 1225.95788574 C199.07211818 1176.07092654 204.65203579 1126.15025708 207.6875 1075.8125 C207.74843842 1074.80293243 207.80937683 1073.79336487 207.87216187 1072.75320435 C208.22585884 1066.81264072 208.55239682 1060.87119021 208.85183716 1054.92764282 C208.94782467 1053.03096521 209.04696906 1051.13444366 209.14987183 1049.23812866 C210.32627713 1027.15453778 210.187361 1005.03915262 210.18530273 982.93139648 C210.18522209 978.46944063 210.19207899 974.00758881 210.20581055 969.5456543 C210.29728312 939.30760656 209.72096978 909.19149616 208 879 C207.96105495 878.3126968 207.92210991 877.6253936 207.88198471 876.91726303 C207.42108108 868.8548511 206.87000799 860.80162384 206.25 852.75 C206.16696625 851.65510254 206.0839325 850.56020508 205.99838257 849.43212891 C200.76720005 781.00411402 191.13234657 713.33761809 178 646 C177.81715454 645.05997131 177.63430908 644.11994263 177.44592285 643.15142822 C160.43775873 555.98508697 135.69243082 468.5748961 102.82427979 386.07446289 C101.87998163 383.69795006 100.94242619 381.31883111 100.00537109 378.93945312 C90.7471304 355.4446138 81.32127791 332.05095433 71 309 C70.70565063 308.34167175 70.41130127 307.68334351 70.10803223 307.00506592 C62.12151273 289.15337372 53.90249179 271.42914481 45.36572266 253.83300781 C44.02381627 251.04940365 42.70142232 248.25748063 41.38671875 245.4609375 C36.30567474 234.65600187 30.95519437 224.04648479 25.33154297 213.51464844 C23.92307511 210.85472565 22.53895328 208.18322969 21.16015625 205.5078125 C14.59896796 192.78565428 7.73083253 180.27762048 0.62353516 167.85302734 C-0.97037806 165.05205444 -2.54508256 162.24121965 -4.11328125 159.42578125 C-11.76034319 145.72110769 -19.81460108 132.29205804 -28.00790405 118.9105072 C-30.57512951 114.71175461 -33.09255795 110.4855657 -35.59545898 106.24829102 C-43.304378 93.22232165 -51.64318377 80.61534132 -60 68 C-60.56783203 67.14067871 -61.13566406 66.28135742 -61.72070312 65.39599609 C-65.12377462 60.2481652 -68.54994695 55.1164594 -72 50 C-72.53608887 49.20480957 -73.07217773 48.40961914 -73.62451172 47.59033203 C-90.06006102 23.26343171 -104.32330415 3.31711125 -134 -4 C-152.95385523 -7.29265191 -170.60550818 -3.98196274 -187 6 C-189.07128551 7.6005388 -191.02862739 9.27430896 -193 11 C-193.66 10.67 -194.32 10.34 -195 10 C-146.06518274 -37.51078819 -55.45329492 -32.45707743 0 0 Z M117 176 C121.08496672 184.8053727 125.25152775 193.56415351 129.6328125 202.2265625 C168.31837003 278.7205754 199.85783127 359.11513979 275 630 C275.17299622 630.8692511 275.34599243 631.7385022 275.52423096 632.63409424 C292.5303852 718.20061827 302.67496314 804.89132205 307 892 C307.04574724 892.90654862 307.09149448 893.81309725 307.13862801 894.74711704 C307.99516766 912.16536808 308.13627599 929.56222491 308.10139394 946.99720502 C308.09501486 950.74202608 308.09454538 954.48684854 308.09336853 958.23167419 C308.09029711 965.27862679 308.08214206 972.32556333 308.07201904 979.37250894 C308.06072542 987.4140459 308.05531455 995.45558375 308.05032361 1003.4971267 C308.03995441 1019.99809377 308.02243886 1036.49904482 308 1053 C310.93414497 1050.68097789 313.64112787 1048.47899061 316.0625 1045.625 C316.65675781 1044.92890625 317.25101563 1044.2328125 317.86328125 1043.515625 C318.56839844 1042.68546875 319.27351563 1041.8553125 320 1041 C320.90915346 1039.95225401 321.81938639 1038.90544412 322.73046875 1037.859375 C329.25871476 1030.34206589 335.55929711 1022.68333399 341.62451172 1014.78759766 C342.53090723 1013.60963743 343.44130375 1012.43474345 344.35595703 1011.26318359 C402.49851076 936.75180802 438.9326467 846.04283425 455 722 C455.08757568 720.82655029 455.17515137 719.65310059 455.26538086 718.4440918 C456.12853572 706.03040077 456.20035286 693.62704818 456.1875 681.1875 C456.18689575 680.10429474 456.1862915 679.02108948 456.18566895 677.90505981 C456.16039601 661.18531757 455.79366 644.63765876 454 628 C453.87109375 626.76717285 453.7421875 625.5343457 453.609375 624.26416016 C446.8184562 560.96870978 429.40403476 500.45913312 402 443 C401.56075195 442.07622559 401.12150391 441.15245117 400.66894531 440.20068359 C379.95049838 396.928464 352.46854922 355.55674979 319.984375 320.16796875 C318.07442617 318.08131206 316.22054653 315.95611046 314.375 313.8125 C311.62955321 310.65586878 308.73348645 307.71145991 305.75 304.78125 C303.91757513 302.91610326 302.20646865 300.98072254 300.5 299 C295.52713777 293.25185858 290.17886852 288.0943171 284.421875 283.140625 C281.904372 280.91547718 279.4535965 278.63047495 277.00463867 276.33056641 C270.54336454 270.26601433 263.92309975 264.53665553 257 259 C255.74985832 257.97180499 254.50126357 256.94172734 253.25390625 255.91015625 C232.07193106 238.43083673 208.90505618 222.54684792 185 209 C184.33339355 208.62004883 183.66678711 208.24009766 182.97998047 207.84863281 C177.68486436 204.84045596 172.35080335 201.90773776 167 199 C165.80576416 198.34644531 165.80576416 198.34644531 164.58740234 197.6796875 C153.70540406 191.74759997 142.63376724 186.34789283 131.3125 181.3125 C130.12342041 180.78285645 128.93434082 180.25321289 127.70922852 179.70751953 C122.53887004 177.10110616 122.53887004 177.10110616 117 176 Z " fill="#273747" transform="translate(958,111)"/>
<path d="M0 0 C0.98097656 0.00773438 1.96195313 0.01546875 2.97265625 0.0234375 C8.18246842 1.08050084 11.49005473 3.70020908 14.47265625 7.99609375 C15.32810274 9.34339673 16.1697878 10.69950267 17 12.0625 C17.46841309 12.80983398 17.93682617 13.55716797 18.41943359 14.32714844 C19.42306289 15.93255875 20.42095656 17.54156661 21.41357422 19.15380859 C22.90794805 21.57707869 24.42186006 23.98698334 25.94140625 26.39453125 C32.46456782 36.77570936 38.73861436 47.29820372 44.9375 57.875 C45.3007135 58.49451538 45.663927 59.11403076 46.03814697 59.75231934 C47.74705006 62.67014796 49.44775285 65.59202548 51.13671875 68.52148438 C52.26314988 70.46280658 53.40867401 72.39331582 54.58203125 74.30664062 C55.04996094 75.08716797 55.51789063 75.86769531 56 76.671875 C56.40347656 77.32510742 56.80695313 77.97833984 57.22265625 78.65136719 C58.21280219 81.3850898 57.79191858 82.85760027 56.9375 85.625 C55.99231463 87.63804558 54.97497846 89.61790846 53.91015625 91.5703125 C53.28794189 92.71991455 52.66572754 93.8695166 52.0246582 95.05395508 C51.34978271 96.28597584 50.6748964 97.51799069 50 98.75 C49.30937271 100.02261452 48.61951841 101.29564881 47.93041992 102.5690918 C46.56056912 105.10012621 45.18835733 107.62985527 43.81445312 110.15869141 C40.20337158 116.82754361 36.68963373 123.54693558 33.17529297 130.26708984 C31.86570458 132.76176532 30.5446578 135.25016359 29.22265625 137.73828125 C15.05417 164.50526489 2.08774995 191.88760202 -10.0625 219.625 C-10.38585327 220.36302856 -10.70920654 221.10105713 -11.0423584 221.8614502 C-36.64219705 280.39708029 -58.50761606 340.49446086 -77.0625 401.625 C-76.19947266 401.89650879 -75.33644531 402.16801758 -74.44726562 402.44775391 C-68.60520903 404.47966367 -63.12072828 407.30258409 -57.5625 410 C-56.9176767 410.31212433 -56.27285339 410.62424866 -55.60848999 410.9458313 C-43.54475855 416.79621681 -31.72986698 423.01638084 -20.0625 429.625 C-18.52215088 430.49294189 -18.52215088 430.49294189 -16.95068359 431.37841797 C27.65722797 456.57294498 69.26640904 485.98414135 108.25048828 519.19238281 C109.92100403 520.61099155 111.59851042 522.02093802 113.27734375 523.4296875 C119.60554583 528.76427926 125.76546477 534.24906061 131.7890625 539.92578125 C132.52128021 540.61567139 133.25349792 541.30556152 134.00790405 542.01635742 C141.58627663 549.18995435 148.99412735 556.52986247 156.36181641 563.91894531 C158.59291572 566.15548995 160.82942947 568.386523 163.06640625 570.6171875 C164.51594632 572.06738723 165.96517679 573.51789651 167.4140625 574.96875 C168.06831207 575.62097534 168.72256165 576.27320068 169.39663696 576.94519043 C173.22735347 580.79521753 176.87621186 584.75573775 180.42126465 588.87065125 C182.49927614 591.27499888 184.65622971 593.60335556 186.8125 595.9375 C190.90630209 600.42648057 194.79219667 605.03743476 198.60546875 609.765625 C200.64224129 612.26297425 202.720647 614.71712662 204.82226562 617.15991211 C211.29730425 624.70138682 217.34021379 632.54016908 223.31884766 640.47851562 C224.88719999 642.55829749 226.46406531 644.63134698 228.04296875 646.703125 C249.90873046 675.49696569 249.90873046 675.49696569 250.71655273 682.71118164 C250.83490982 683.74319199 250.95326691 684.77520233 251.07521057 685.83848572 C251.19347702 686.95526199 251.31174347 688.07203827 251.43359375 689.22265625 C251.6255558 690.96688622 251.6255558 690.96688622 251.82139587 692.74635315 C253.12135188 704.83333872 254.12333783 716.93827112 255 729.0625 C255.08399048 730.21883942 255.16798096 731.37517883 255.2545166 732.56655884 C258.00640532 770.86237575 259.11240577 809.05225335 259.125 847.4375 C259.12588371 848.6311297 259.12588371 848.6311297 259.12678528 849.84887314 C259.13753344 866.76346718 259.02769222 883.66727577 258.48828125 900.57421875 C258.44978561 901.82394974 258.41128998 903.07368073 258.37162781 904.36128235 C258.3306044 905.5113829 258.28958099 906.66148346 258.24731445 907.84643555 C258.21185013 908.84676315 258.1763858 909.84709076 258.1398468 910.87773132 C257.94413334 913.53493888 257.52110376 916.02795493 256.9375 918.625 C253.41259284 914.53931216 250.96400491 910.22631542 248.4375 905.5 C232.15647902 875.6989959 212.30678651 847.41668811 191.48828125 820.62109375 C190.01902075 818.72992973 188.55608051 816.83402388 187.09375 814.9375 C181.99380343 808.35457735 176.72554038 801.95087859 171.27050781 795.65893555 C168.31211227 792.24529176 165.4403963 788.78377134 162.625 785.25 C157.59169413 779.04743251 152.09426081 773.30039756 146.6015625 767.5078125 C143.66044016 764.40487599 140.78893421 761.24830435 137.9375 758.0625 C132.22212224 751.80238881 126.23558372 745.81233399 120.25 739.8125 C119.75218018 739.31209198 119.25436035 738.81168396 118.74145508 738.29611206 C113.55438953 733.0877863 108.33112665 727.97136302 102.74536133 723.18774414 C99.78819616 720.63152345 96.96793232 717.93166321 94.125 715.25 C89.15911297 710.60310224 84.08499092 706.18204552 78.7734375 701.9296875 C76.08649434 699.74608356 73.46384971 697.50597699 70.84912109 695.23730469 C64.3571625 689.60585441 57.71966831 684.22457082 50.84716797 679.06201172 C48.6854864 677.43536154 46.53239967 675.79762976 44.37890625 674.16015625 C27.37319976 661.27060947 9.99204838 649.00269803 -8.0625 637.625 C-8.86768066 637.11614258 -9.67286133 636.60728516 -10.50244141 636.08300781 C-45.27854858 614.16053366 -81.67164961 593.51566835 -120.0625 578.625 C-120.14426987 579.63636017 -120.14426987 579.63636017 -120.22769165 580.66815186 C-120.77961073 587.14425544 -121.57226152 593.53447886 -122.5859375 599.953125 C-122.73277985 600.90403015 -122.87962219 601.8549353 -123.03091431 602.83465576 C-123.49655987 605.8486133 -123.96654635 608.86186768 -124.4375 611.875 C-129.11999908 640.98634999 -129.11999908 640.98634999 -132 670.3125 C-132.55393963 678.29738231 -133.19896313 686.26387377 -133.96875 694.23046875 C-135.93075225 714.6162788 -137.57444543 734.9899065 -138.75 755.4375 C-138.81057587 756.47324158 -138.87115173 757.50898315 -138.93356323 758.57611084 C-140.59644722 787.31424523 -141.27351053 816.03270021 -141.25 844.8125 C-141.24973312 845.55253517 -141.24946625 846.29257034 -141.24919128 847.05503082 C-141.22098531 909.81775353 -137.3869648 972.28874704 -130.0625 1034.625 C-129.94370483 1035.64049927 -129.82490967 1036.65599854 -129.70251465 1037.70227051 C-126.88997366 1061.68873348 -123.8755404 1085.58962733 -119.6328125 1109.37011719 C-119.05053728 1112.69327352 -118.50404202 1116.02053333 -117.96875 1119.3515625 C-115.84458239 1132.61106235 -115.84458239 1132.61106235 -112.7890625 1145.6796875 C-111.80884379 1149.65326229 -111.08576951 1153.65812282 -110.375 1157.6875 C-110.24343506 1158.42734131 -110.11187012 1159.16718262 -109.97631836 1159.92944336 C-109.46966297 1162.8681809 -109.0625 1165.63698242 -109.0625 1168.625 C-114.37486741 1168.06780468 -119.17991768 1167.15992003 -124.3046875 1165.578125 C-124.97762848 1165.37097366 -125.65056946 1165.16382233 -126.34390259 1164.95039368 C-128.54484101 1164.26800069 -130.74148972 1163.5730803 -132.9375 1162.875 C-134.08182495 1162.51352371 -134.08182495 1162.51352371 -135.24926758 1162.14474487 C-161.86046817 1153.70611322 -187.7871212 1143.47879681 -213.0625 1131.625 C-213.74856323 1131.35154755 -214.43462646 1131.07809509 -215.14147949 1130.7963562 C-217.0625 1129.625 -217.0625 1129.625 -217.82229614 1127.88777161 C-217.94426361 1127.18593246 -218.06623108 1126.48409332 -218.19189453 1125.76098633 C-218.33948212 1124.95642502 -218.4870697 1124.15186371 -218.63912964 1123.32292175 C-218.78141998 1122.43905289 -218.92371033 1121.55518402 -219.0703125 1120.64453125 C-219.23314728 1119.71276566 -219.39598206 1118.78100006 -219.56375122 1117.82099915 C-220.08819812 1114.75919231 -220.58020407 1111.69371672 -221.0625 1108.625 C-221.22278687 1107.6106488 -221.38307373 1106.59629761 -221.54821777 1105.5512085 C-222.753969 1097.81550064 -223.8592617 1090.06689003 -224.9375 1082.3125 C-225.10858276 1081.0873468 -225.27966553 1079.8621936 -225.45593262 1078.59991455 C-230.60517758 1041.53571844 -234.58952079 1004.38376174 -237.3125 967.0625 C-237.3897229 966.0076239 -237.4669458 964.9527478 -237.54650879 963.86590576 C-238.01501644 957.36820254 -238.43933006 950.86864596 -238.83364868 944.36602783 C-238.99299389 941.76121498 -239.15694651 939.15703811 -239.32675171 936.55291748 C-241.17929576 907.88965303 -241.42387627 879.26614882 -241.38035583 850.5496521 C-241.37492643 846.8245229 -241.37255142 843.09940003 -241.3704834 839.37426758 C-241.33991744 804.04537281 -240.96735628 768.85785958 -238.28710938 733.61590576 C-238.0609333 730.60413781 -237.84883739 727.59167278 -237.640625 724.57861328 C-234.26546295 676.11385999 -228.46352167 627.79283343 -220.43951416 579.88208008 C-220.08916264 577.7846219 -219.74337172 575.68648526 -219.39990234 573.58789062 C-218.03155794 565.25232839 -216.57419774 556.93569115 -215.0625 548.625 C-214.93184143 547.90125183 -214.80118286 547.17750366 -214.66656494 546.43182373 C-196.26266965 444.50772498 -168.27122543 344.09511707 -105.0625 186.625 C-104.70575195 185.80789551 -104.34900391 184.99079102 -103.98144531 184.14892578 C-85.06119464 140.81989691 -64.75163099 97.52594595 -41.55957031 56.29833984 C-39.83266429 53.21457908 -38.13067416 50.11766218 -36.4296875 47.01953125 C-30.58381818 36.38946307 -24.68628638 25.78543249 -18.5625 15.3125 C-18.10681641 14.51312012 -17.65113281 13.71374023 -17.18164062 12.89013672 C-13.14098621 6.08443595 -8.59781291 -0.29452324 0 0 Z " fill="#273747" transform="translate(811.0625,240.375)"/>
<path d="M0 0 C68.18774798 10.13872553 137.82689212 42.02368209 196 78 C196.92393555 78.57105469 197.84787109 79.14210938 198.79980469 79.73046875 C211.16637026 87.41240801 223.22893511 95.4351237 235 104 C235.79067871 104.57282715 236.58135742 105.1456543 237.39599609 105.73583984 C246.82144646 112.57441891 256.07820097 119.5130763 265 127 C266.7490739 128.41780991 268.49910618 129.83443818 270.25 131.25 C287.91044548 145.72906026 304.40134819 161.31976411 320.5625 177.4375 C321.12748199 177.99980316 321.69246399 178.56210632 322.27456665 179.14144897 C328.40292673 185.24773853 334.39198341 191.40574262 340 198 C341.45445517 199.60768373 342.91220895 201.21239715 344.375 202.8125 C349.10571502 208.06175883 353.57083694 213.49558996 358 219 C358.91374442 220.12135302 359.82782139 221.24243511 360.7421875 222.36328125 C368.83514205 232.32802933 376.49322357 242.5881688 384 253 C384.58571777 253.81130371 385.17143555 254.62260742 385.77490234 255.45849609 C399.48461561 274.52942284 411.59075222 294.48175602 423 315 C423.55300781 315.9909668 424.10601563 316.98193359 424.67578125 318.00292969 C439.18315605 344.11129212 451.42178684 371.08706254 462 399 C462.23654297 399.62370483 462.47308594 400.24740967 462.71679688 400.89001465 C486.28255964 463.24647561 499.15659879 529.09799397 502.25 595.625 C502.29129028 596.50994141 502.33258057 597.39488281 502.37512207 598.30664062 C503.2362156 617.38427018 503.13812798 636.36289386 502.25 655.4375 C502.20709839 656.36209015 502.16419678 657.2866803 502.11999512 658.23928833 C500.13594732 699.73186257 493.92587551 740.6719485 484 781 C483.73638672 782.07765625 483.47277344 783.1553125 483.20117188 784.265625 C468.747321 842.51573078 445.43592911 899.07041359 414.51318359 950.47753906 C413.1970723 952.67148257 411.89953001 954.87441408 410.61328125 957.0859375 C391.2806604 990.16483352 367.78724159 1021.41739765 342.02734375 1049.7578125 C340.26032801 1051.71208424 338.53086471 1053.69059737 336.8125 1055.6875 C328.43226188 1065.27864408 319.61168606 1074.47840391 310.625 1083.5 C309.98377197 1084.14582031 309.34254395 1084.79164062 308.68188477 1085.45703125 C304.88310203 1089.24356459 300.96531263 1092.83349223 296.90625 1096.33886719 C294.10195114 1098.78257229 291.40027982 1101.33083278 288.6875 1103.875 C283.93623463 1108.28997763 279.08518353 1112.51443124 274.0234375 1116.57421875 C271.67906935 1118.45516529 269.35472632 1120.35374572 267.0390625 1122.26953125 C266.34079346 1122.84453369 265.64252441 1123.41953613 264.9230957 1124.01196289 C263.55703684 1125.13688748 262.19342297 1126.26479053 260.83276367 1127.39624023 C256.43645795 1130.99845319 251.88942591 1134.1034015 247 1137 C247.67692042 1127.39412615 248.59192937 1117.82324339 249.55645752 1108.24301147 C251.10845604 1092.75280838 252.55091258 1077.25377421 253.86480713 1061.74154663 C254.03823977 1059.70585913 254.21430526 1057.67039422 254.39300537 1055.63516235 C255.30514639 1045.23594053 256.09317766 1034.89028941 256.23828125 1024.44921875 C256.69062474 997.59806958 256.69062474 997.59806958 264.0625 990.4375 C265.78726437 988.9618025 267.54064615 987.58954601 269.37841797 986.2578125 C271.88287861 984.31517756 273.69322842 981.93372753 275.625 979.4375 C278.29938113 976.09331016 281.01752618 972.80857166 283.82592773 969.57592773 C343.9237452 900.01677196 381.90080375 809.97971487 405 667 C405.08757568 665.82655029 405.17515137 664.65310059 405.26538086 663.4440918 C406.12853572 651.03040077 406.20035286 638.62704818 406.1875 626.1875 C406.18689575 625.10429474 406.1862915 624.02108948 406.18566895 622.90505981 C406.16039601 606.18531757 405.79366 589.63765876 404 573 C403.87109375 571.76717285 403.7421875 570.5343457 403.609375 569.26416016 C396.8184562 505.96870978 379.40403476 445.45913312 352 388 C351.56075195 387.07622559 351.12150391 386.15245117 350.66894531 385.20068359 C329.95049838 341.928464 302.46854922 300.55674979 269.984375 265.16796875 C268.07442617 263.08131206 266.22054653 260.95611046 264.375 258.8125 C261.65807071 255.68865734 258.79718138 252.77027603 255.84033203 249.87475586 C254.06798552 248.0692572 252.43219373 246.20299531 250.796875 244.2734375 C247.02858415 239.94149638 242.9592222 236.0238626 238.75 232.125 C238.00347168 231.42882568 237.25694336 230.73265137 236.48779297 230.01538086 C234.32928437 228.00579118 232.1653597 226.00220188 230 224 C229.44666992 223.48550293 228.89333984 222.97100586 228.32324219 222.44091797 C222.73280067 217.24507426 217.0117534 212.26695502 211.0703125 207.4765625 C208.78185532 205.63065683 206.50788199 203.77188292 204.2421875 201.8984375 C183.05896043 184.42757485 159.90141706 168.54478565 136 155 C135.00009033 154.43007324 135.00009033 154.43007324 133.97998047 153.84863281 C128.68485916 150.84045301 123.35044612 147.90839723 118 145 C117.21447754 144.56961426 116.42895508 144.13922852 115.61962891 143.69580078 C107.02631915 139.00522065 98.4002227 134.54150696 89.39453125 130.6953125 C88.7413945 130.41377823 88.08825775 130.13224396 87.41532898 129.84217834 C84.18384727 128.4509196 80.9454092 127.08675549 77.68432617 125.76635742 C70.32551699 122.63459794 66.2573819 120.33777251 63 113 C62.04665191 111.18357269 61.08790503 109.36997297 60.125 107.55859375 C59.08141846 105.5192079 58.0398469 103.47879261 57 101.4375 C51.1722647 90.11627816 45.01064978 79.02402861 38.68994141 67.97265625 C36.28862894 63.74867755 33.92748203 59.50266803 31.56420898 55.25732422 C25.34317845 44.0877657 18.96127895 33.06260075 12.26123047 22.17431641 C10.96947848 20.07435771 9.67930175 17.9734293 8.390625 15.87158203 C7.10451036 13.77489365 5.81424712 11.68074349 4.51953125 9.58935547 C3.64167969 8.15873779 3.64167969 8.15873779 2.74609375 6.69921875 C2.21685303 5.84158936 1.6876123 4.98395996 1.14233398 4.1003418 C0 2 0 2 0 0 Z " fill="#A5A7AA" transform="translate(1007,166)"/>
<path d="M0 0 C0.99 0.33 1.98 0.66 3 1 C-0.96 4.96 -4.92 8.92 -9 13 C-9 8.86218946 -7.28490393 7.79080004 -4.5 4.8125 C-3.6646875 3.91144531 -2.829375 3.01039062 -1.96875 2.08203125 C-0.99421875 1.05142578 -0.99421875 1.05142578 0 0 Z " fill="#8D9298" transform="translate(762,122)"/>
</svg>
