<?xml version="1.0" encoding="UTF-8"?>
<svg version="1.1" xmlns="http://www.w3.org/2000/svg" width="1500" height="375">
<path d="M0 0 C32.20893254 29.95286722 55.01303415 71.63603152 74.62109375 110.4375 C75.02424805 111.2330127 75.42740234 112.02852539 75.84277344 112.84814453 C109.64316712 180.14637083 132.55485177 268.28683361 122.62109375 350.4375 C119.39856438 355.8865042 116.407948 359.41922633 110.37109375 361.625 C102.64503078 363.29898031 94.95210083 363.61282307 87.06640625 363.67578125 C86.08421112 363.683853 85.10201599 363.69192474 84.09005737 363.70024109 C82.02441119 363.7139891 79.95874318 363.72475216 77.89306641 363.73266602 C75.79859674 363.74420266 73.70415685 363.76468088 71.60986328 363.79418945 C46.94249825 364.14082616 46.94249825 364.14082616 37.67578125 357.24609375 C36.95648437 356.46363281 36.2371875 355.68117188 35.49609375 354.875 C34.67882813 353.99714844 33.8615625 353.11929687 33.01953125 352.21484375 C29.89710571 348.59913599 26.89046491 344.90125292 23.91015625 341.16796875 C20.81183938 337.47219487 17.41209764 334.1448001 13.96484375 330.77734375 C11.87305148 328.6890378 9.91940839 326.55491003 7.99609375 324.3125 C2.77191508 318.2318986 -2.92304713 312.74901788 -9.00390625 307.53515625 C-10.87273642 305.88456118 -12.69425614 304.20995796 -14.50390625 302.49609375 C-21.93077186 295.46534173 -29.5467492 288.925551 -37.68505859 282.73291016 C-39.32992543 281.47495924 -40.95978392 280.19998401 -42.5859375 278.91796875 C-62.43905455 263.32128149 -84.07189522 249.9291981 -105.37890625 236.4375 C-110.46858617 265.85039069 -110.46858617 265.85039069 -114.37890625 295.4375 C-114.51703735 296.6282312 -114.51703735 296.6282312 -114.65795898 297.84301758 C-115.6895968 307.68636578 -115.69894674 317.59129637 -115.85571289 327.47924805 C-116.24365249 350.92520251 -116.24365249 350.92520251 -120.44140625 356.875 C-128.68659106 364.06760803 -140.48312949 363.59308572 -150.87109375 363.60546875 C-151.8570755 363.60879715 -152.84305725 363.61212555 -153.85891724 363.61555481 C-155.93474871 363.62059378 -158.0105882 363.62296408 -160.08642578 363.62280273 C-163.23744225 363.62498858 -166.38810783 363.64317512 -169.5390625 363.66210938 C-171.56640507 363.66504418 -173.59374928 363.66702839 -175.62109375 363.66796875 C-176.55057831 363.67515427 -177.48006287 363.68233978 -178.43771362 363.68974304 C-187.46609856 363.6586857 -195.89207216 362.78523863 -203.37890625 357.4375 C-210.51494128 349.0711141 -208.73716663 334.88516335 -208.69140625 324.5625 C-208.68867203 323.28595047 -208.68867203 323.28595047 -208.68588257 321.98361206 C-208.41265178 245.44428014 -189.49073535 169.59933892 -154.48291016 101.58789062 C-153.70676928 100.07611511 -152.93609325 98.56152757 -152.16943359 97.04492188 C-105.37717555 4.49666045 -105.37717555 4.49666045 -70.90625 -8.8203125 C-49.28903936 -15.16848873 -17.7762686 -15.08625604 0 0 Z M-42.37890625 79.4375 C-57.19719526 93.50843183 -65.74867892 115.41990838 -74.12890625 133.6875 C-74.55937256 134.62207031 -74.98983887 135.55664062 -75.43334961 136.51953125 C-75.82272705 137.38449219 -76.21210449 138.24945313 -76.61328125 139.140625 C-76.95584961 139.90020508 -77.29841797 140.65978516 -77.65136719 141.44238281 C-78.55020232 143.55330373 -78.55020232 143.55330373 -78.37890625 146.4375 C-77.80261475 146.7277002 -77.22632324 147.01790039 -76.63256836 147.31689453 C-54.08794685 158.72812265 -32.81706172 171.57598011 -12.37890625 186.4375 C-11.7854541 186.86901367 -11.19200195 187.30052734 -10.58056641 187.74511719 C-3.90012103 192.63108658 2.60531109 197.74279434 9.07958984 202.8972168 C12.19584285 205.4013862 12.19584285 205.4013862 15.62109375 207.4375 C14.99542213 200.32569931 12.63728358 193.79957358 10.37109375 187.0625 C10.15312134 186.4132254 9.93514893 185.76395081 9.71057129 185.09500122 C-7.54888648 125.58387557 -7.54888648 125.58387557 -42.37890625 79.4375 Z " fill="#273747" transform="translate(1353.37890625,11.5625)"/>
<path d="M0 0 C8.46581045 8.32575657 15.8506591 17.54419303 23 27 C23.53351074 27.69834961 24.06702148 28.39669922 24.61669922 29.11621094 C39.05687769 48.06139169 51.50678955 68.15240554 63 89 C63.44907715 89.80630859 63.8981543 90.61261719 64.36083984 91.44335938 C78.19246253 116.4119362 89.03271137 142.93552517 98 170 C98.35787598 171.07378906 98.71575195 172.14757812 99.08447266 173.25390625 C113.91135748 218.21945653 121.37248734 265.23829582 122.75 312.5 C122.77341461 313.26923798 122.79682922 314.03847595 122.82095337 314.83102417 C123.77813036 348.27472545 123.77813036 348.27472545 117.6796875 355.58203125 C110.01220908 362.54699202 99.41357212 362.15634691 89.67578125 362.16796875 C88.6931279 362.17129715 87.71047455 362.17462555 86.69804382 362.17805481 C84.62462835 362.18310017 82.55120481 362.18546388 80.4777832 362.18530273 C77.33986682 362.187481 74.20230707 362.20563986 71.06445312 362.22460938 C43.4500923 362.30392425 43.4500923 362.30392425 36 356 C35.4225 355.566875 34.845 355.13375 34.25 354.6875 C30.97200973 350.26221314 30.74312504 344.5164086 30.65625 339.1953125 C30.62829346 337.90375244 30.60033691 336.61219238 30.5715332 335.28149414 C30.56030426 334.6047464 30.54907532 333.92799866 30.5375061 333.23074341 C30.47306441 329.61272762 30.36681042 325.99593483 30.26171875 322.37890625 C30.24086716 321.65418625 30.22001556 320.92946625 30.1985321 320.18278503 C29.47229008 295.87049236 25.69839403 271.999822 22 248 C21.78897804 246.62566401 21.57803578 245.25131577 21.3671875 243.87695312 C20.91266875 240.91778003 20.4570585 237.95878167 20 235 C3.32454928 245.22720899 3.32454928 245.22720899 -13 256 C-14.20294606 256.8127649 -15.40608341 257.62524674 -16.609375 258.4375 C-35.46957628 271.22383661 -53.36489009 284.77733001 -70.05078125 300.296875 C-72.20047653 302.29119736 -74.40521906 304.20656632 -76.6328125 306.11328125 C-81.65505195 310.49176578 -86.34684564 315.19670289 -91.0456543 319.9152832 C-92.5599258 321.43491668 -94.0794743 322.94912517 -95.59960938 324.46289062 C-102.62199566 331.47954288 -109.17044582 338.76405034 -115.47583008 346.42871094 C-121.99783545 354.27646886 -127.67753632 359.88710971 -138 362 C-141.44329786 362.28095989 -144.87089079 362.28061896 -148.32421875 362.265625 C-149.79819878 362.26849518 -149.79819878 362.26849518 -151.30195618 362.27142334 C-153.375379 362.27277973 -155.44881047 362.26912154 -157.5222168 362.26074219 C-160.66019293 362.25009267 -163.79758907 362.26062649 -166.93554688 362.2734375 C-195.39971793 362.29440934 -195.39971793 362.29440934 -204 356 C-209.80521612 349.43093965 -210.30945163 340.81191341 -210.30078125 332.3828125 C-210.30642593 331.5810257 -210.31207062 330.77923889 -210.31788635 329.95315552 C-210.32990089 327.34357286 -210.3236246 324.73458181 -210.3125 322.125 C-210.31034485 321.22084351 -210.3081897 320.31668701 -210.30596924 319.38513184 C-210.15117501 278.62145887 -204.61377989 238.36555218 -194 199 C-193.72043457 197.96133789 -193.44086914 196.92267578 -193.15283203 195.85253906 C-177.15104462 137.24470824 -150.63076762 80.58114443 -114 32 C-113.31381592 31.08637695 -113.31381592 31.08637695 -112.61376953 30.15429688 C-109.78639027 26.4010834 -106.90800812 22.69130998 -104 19 C-103.27554688 18.06929687 -102.55109375 17.13859375 -101.8046875 16.1796875 C-90.90128831 2.46250788 -80.19085276 -9.49574493 -62 -12.4375 C-40.2993094 -14.49668962 -17.00164951 -15.50550435 0 0 Z M-44 78 C-71.61214507 106.56131256 -84.83298348 152.35512045 -97.25 189.1875 C-97.49868835 189.91867035 -97.74737671 190.6498407 -98.00360107 191.40316772 C-98.70352425 193.46790319 -99.39269278 195.53588418 -100.078125 197.60546875 C-100.67222168 199.38667114 -100.67222168 199.38667114 -101.27832031 201.20385742 C-102.30837739 203.93036887 -102.30837739 203.93036887 -101 206 C-99.7625 205.01773438 -99.7625 205.01773438 -98.5 204.015625 C-69.60417333 181.14595105 -39.14765791 161.97258828 -7 144 C-14.72984237 125.19190429 -22.94965419 106.41591761 -33.9375 89.25 C-34.59177979 88.22277832 -34.59177979 88.22277832 -35.25927734 87.17480469 C-37.76423386 83.40338383 -40.25469097 80.6532064 -44 78 Z " fill="#273747" transform="translate(233,13)"/>
<path d="M0 0 C2.13882621 0.00533676 4.27744008 0.00003468 6.41625977 -0.00634766 C35.86748144 -0.02352211 35.86748144 -0.02352211 45.77758789 5.88037109 C50.63929386 11.18405033 51.82776041 17.93783997 52.16552734 24.90014648 C52.21277954 25.82601563 52.26003174 26.75188477 52.30871582 27.70581055 C52.35645142 28.70314209 52.40418701 29.70047363 52.45336914 30.72802734 C52.56510192 32.89546021 52.67751591 35.06285804 52.79052734 37.23022461 C52.84906891 38.36614044 52.90761047 39.50205627 52.96792603 40.6723938 C57.05200922 118.53320243 70.16737167 198.97897787 106.21508789 269.00537109 C106.60752686 269.7780835 106.99996582 270.5507959 107.40429688 271.34692383 C109.66261703 275.58229581 111.76992376 278.38336986 115.84008789 281.13037109 C121.16168076 274.01672215 125.3440802 266.70935975 129.15258789 258.69287109 C129.71163818 257.52127441 130.27068848 256.34967773 130.84667969 255.14257812 C136.67156562 242.77780236 141.42512767 230.05837934 145.84008789 217.13037109 C146.37110107 215.5808374 146.37110107 215.5808374 146.9128418 214 C166.49957785 156.23245607 176.63703992 95.49553523 177.46191406 34.53198242 C177.88460892 10.47397106 177.88460892 10.47397106 184.14868164 4.36083984 C192.79708133 -1.93072113 207.56646153 -0.02815773 217.77905273 0 C220.07160149 0.00532813 222.36395156 0.00004373 224.65649414 -0.00634766 C255.03189525 -0.02292287 255.03189525 -0.02292287 265.77758789 5.69287109 C280.78390962 23.42761496 272.45131948 64.61306764 270.65582275 86.36242676 C263.10948393 171.24844918 234.3560337 256.48760253 161.48461914 361.98193359 C147.58092153 373.27740433 132.98605902 375.66308087 115.34008789 375.50537109 C114.04200195 375.51697266 112.74391602 375.52857422 111.40649414 375.54052734 C92.60863303 375.4841901 79.27887739 371.20067765 65.84008789 358.13037109 C65.12336914 357.48712891 64.40665039 356.84388672 63.66821289 356.18115234 C0.82036276 297.80605067 -26.77039074 185.60692625 -39.15991211 92.13037109 C-39.24604767 91.29110077 -39.33218323 90.45183044 -39.42092896 89.58712769 C-40.88781551 74.864965 -41.50572801 60.24496363 -41.47558594 45.4519043 C-41.47236251 42.1419356 -41.49624823 38.83281249 -41.52124023 35.52294922 C-41.52350841 33.38297636 -41.52421897 31.24300116 -41.52319336 29.10302734 C-41.53240311 28.13107925 -41.54161285 27.15913116 -41.55110168 26.1577301 C-41.5012786 18.7756566 -40.5253332 12.23921024 -35.97241211 6.25537109 C-25.790512 -1.4376201 -12.15278375 -0.03594271 0 0 Z " fill="#273747" transform="translate(846.159912109375,-0.13037109375)"/>
<path d="M0 0 C1.10894599 -0.00226556 2.21789198 -0.00453111 3.3604424 -0.00686532 C7.07195025 -0.01318943 10.78342144 -0.01237697 14.49493408 -0.0115509 C17.15788916 -0.01454339 19.82084138 -0.01791792 22.48379517 -0.02172852 C28.96428026 -0.03002239 35.44475625 -0.03278279 41.92524621 -0.03334089 C47.19529536 -0.03381668 52.46534151 -0.03587457 57.73538971 -0.03904152 C72.69011962 -0.04784488 87.64484237 -0.05246143 102.59957489 -0.05171105 C103.40518991 -0.05167109 104.21080493 -0.05163113 105.04083252 -0.05158997 C105.84743581 -0.05154909 106.6540391 -0.0515082 107.48508492 -0.05146609 C120.55253756 -0.05105977 133.61996137 -0.06062644 146.68740568 -0.07472833 C160.11787983 -0.08910715 173.54833994 -0.09599768 186.97882199 -0.09513456 C194.51379442 -0.09480309 202.04873661 -0.09752792 209.58370209 -0.10831261 C215.99992391 -0.11743747 222.41610181 -0.11957661 228.83232734 -0.11280318 C232.10255437 -0.10954789 235.37268012 -0.11054155 238.64290237 -0.11815643 C242.19674261 -0.12589416 245.75036358 -0.12121957 249.30419922 -0.11352539 C250.32572106 -0.11866895 251.3472429 -0.12381252 252.39971995 -0.12911195 C260.01840456 -0.09280697 268.28114114 -0.01165145 274.96856689 3.94621277 C279.58391012 9.15708416 279.22150714 14.70435075 279.15606689 21.32121277 C279.15002441 22.29284363 279.14398193 23.26447449 279.13775635 24.26554871 C278.70904923 56.0782148 278.70904923 56.0782148 269.89434814 66.66105652 C264.11461939 70.94191652 257.94075575 71.56952587 251.01153564 71.47428894 C250.16180679 71.47472702 249.31207794 71.4751651 248.43659973 71.47561646 C245.65534699 71.47354278 242.87471305 71.45027956 240.09356689 71.42668152 C238.15444264 71.4210805 236.21531411 71.41681279 234.27618408 71.41381836 C229.19295358 71.40240944 224.10998362 71.3729765 219.02685547 71.33970642 C213.83168054 71.30892005 208.63646317 71.29529476 203.44122314 71.28019714 C193.26272378 71.24810284 183.08441707 71.1969546 172.90606689 71.13371277 C172.90702834 71.85748643 172.90798979 72.58126009 172.90898037 73.32696629 C172.94003513 101.15737684 172.83260033 128.98715483 172.72247314 156.81730652 C172.71761107 158.0479638 172.712749 159.27862109 172.70773959 160.54657102 C172.66162272 172.19275312 172.61487058 183.83893255 172.56672764 195.48510647 C172.55572872 198.1480045 172.54473349 200.81090255 172.53375244 203.47380066 C172.53102414 204.1352683 172.52829583 204.79673595 172.52548485 205.47824807 C172.48119799 216.24044611 172.44059451 227.00265495 172.40141428 237.76487266 C172.36080403 248.9011614 172.31658708 260.03743219 172.26918834 271.17369419 C172.24281658 277.39224327 172.21796595 283.61078923 172.19699287 289.82935905 C172.17724187 295.66476986 172.15304675 301.50014611 172.12557602 307.33552551 C172.11631592 309.46139964 172.10860256 311.58728123 172.10264778 313.71316719 C172.07432622 323.52845445 171.98586958 333.3253016 171.46354675 343.128479 C171.42614335 343.84513086 171.38873994 344.56178271 171.3502031 345.30015129 C170.79433723 354.54586485 169.63108922 362.77471643 162.92559814 369.57902527 C155.06214588 375.63251463 143.95826746 375.28892194 134.47247314 375.30168152 C133.59509995 375.30500992 132.71772675 375.30833832 131.81376648 375.31176758 C129.96913167 375.31680115 128.12448786 375.31917702 126.27984619 375.3190155 C123.47996862 375.32120386 120.68048446 375.33940286 117.88067627 375.35832214 C116.07794322 375.36125658 114.27520833 375.36324104 112.47247314 375.36418152 C111.6471962 375.37136703 110.82191925 375.37855255 109.97163391 375.38595581 C101.8454981 375.35448212 94.31995629 374.50348063 87.90606689 369.13371277 C77.74457378 356.99637377 80.74980788 336.01873804 80.71661377 321.11955261 C80.70865476 319.12518648 80.70026554 317.13082202 80.69148254 315.13645935 C80.67351742 310.86039604 80.65846799 306.58433621 80.64570618 302.30825424 C80.62529567 295.50937834 80.59766136 288.71054295 80.56903076 281.91169739 C80.5141937 268.66848887 80.46603477 255.42526062 80.41909027 242.18202209 C80.35961592 225.40698087 80.29873419 208.6319506 80.22851801 191.8569504 C80.20515268 186.22386199 80.18356065 180.59077939 80.16642761 174.9576683 C80.09975693 153.12614171 80.00510428 131.30813145 79.25293732 109.4876461 C78.81702475 96.70020302 78.80049224 83.92773708 78.90606689 71.13371277 C77.80883301 71.14259521 76.71159912 71.15147766 75.58111572 71.16062927 C65.22350008 71.24183607 54.86594933 71.30173625 44.50808716 71.34096146 C39.18341772 71.36180575 33.859006 71.39006586 28.53448486 71.43547058 C23.39272541 71.47904071 18.25121331 71.50287362 13.10928345 71.51322174 C11.15093087 71.52059306 9.19259131 71.53498754 7.23434448 71.556633 C4.48399969 71.58581545 1.73466744 71.58966259 -1.01580811 71.58781433 C-1.81926163 71.60219543 -2.62271515 71.61657654 -3.45051575 71.63139343 C-9.9801978 71.5841418 -14.92025063 69.58411987 -20.08221436 65.59855652 C-26.96620609 57.65861325 -27.58058089 47.10355667 -28.28143311 37.00871277 C-28.40421631 35.47924011 -28.40421631 35.47924011 -28.52947998 33.91886902 C-30.1309959 12.95112272 -30.1309959 12.95112272 -25.28143311 5.25871277 C-18.74904221 -1.08703839 -8.4931807 -0.01276396 0 0 Z " fill="#273747" transform="translate(361.09393310546875,-0.1337127685546875)"/>
<path d="M0 0 C1.14675705 -0.00776459 1.14675705 -0.00776459 2.31668091 -0.01568604 C30.79386455 -0.16756842 30.79386455 -0.16756842 38.5625 6.25 C46.39431746 17.99772619 44.71952866 34.17816203 44.6875 47.6875 C44.68597774 48.34336362 44.68445547 48.99922723 44.68288708 49.6749655 C44.64634128 61.52137498 44.42263951 73.35831309 44.1416769 85.201141 C43.54089019 110.9712727 43.36827193 136.73553056 43.29210854 162.51175141 C43.2734443 168.43368524 43.24922607 174.35559641 43.22546387 180.2775116 C43.1563489 197.74722206 43.09613203 215.21696174 43.03643799 232.68670654 C42.98950396 246.37958988 42.94031578 260.07245832 42.88495111 273.76531047 C42.85693025 280.75644111 42.83322905 287.74756789 42.81302643 294.7387253 C42.79951821 299.08700402 42.78211989 303.43526117 42.76371574 307.78352165 C42.75605249 309.77675958 42.7499436 311.77000428 42.74562263 313.76325226 C42.72391368 323.40953989 42.60461554 333.03444728 42.12097168 342.66996765 C42.08350846 343.43795994 42.04604524 344.20595222 42.00744677 344.997217 C41.48486129 354.32793453 40.39087908 362.78612375 33.58203125 369.6953125 C25.71857899 375.74880186 14.61470057 375.40520917 5.12890625 375.41796875 C4.25153305 375.42129715 3.37415985 375.42462555 2.47019958 375.42805481 C0.62556477 375.43308838 -1.21907903 375.43546425 -3.0637207 375.43530273 C-5.86359827 375.43749109 -8.66308244 375.45569009 -11.46289062 375.47460938 C-13.26562367 375.47754381 -15.06835856 375.47952827 -16.87109375 375.48046875 C-17.6963707 375.48765427 -18.52164764 375.49483978 -19.37193298 375.50224304 C-27.49806879 375.47076935 -35.02361061 374.61976787 -41.4375 369.25 C-51.56500668 357.15325591 -48.5903662 336.31137975 -48.61108398 321.45922852 C-48.61740464 319.48537047 -48.62417206 317.51151381 -48.63134766 315.53765869 C-48.64595715 311.29606485 -48.65770945 307.05447625 -48.66729546 302.81286812 C-48.68297407 296.01478295 -48.70694355 289.21674137 -48.73219299 282.41868591 C-48.79837763 264.27896883 -48.85551181 246.13922624 -48.90460646 227.99945486 C-48.94619691 212.66756467 -48.99617412 197.33572646 -49.05859375 182.00390625 C-49.06552915 180.26829839 -49.06552915 180.26829839 -49.07260466 178.49762774 C-49.21370774 144.06972675 -49.67736623 109.66835946 -50.75474548 75.25648499 C-51.18057527 61.62519643 -51.56387865 47.99306728 -51.66626632 34.35490716 C-51.67874507 32.92788706 -51.69621867 31.50089996 -51.71922314 30.07401073 C-51.98256419 12.85858345 -51.98256419 12.85858345 -46.5625 5.8125 C-34.93804423 -2.73489395 -13.86772327 0.04304261 0 0 Z " fill="#273747" transform="translate(721.4375,-0.25)"/>
</svg>
